<svg xmlns="http://www.w3.org/2000/svg" xmlns:xlink="http://www.w3.org/1999/xlink" width="135" zoomAndPan="magnify" viewBox="0 0 101.25 30.000001" height="40" preserveAspectRatio="xMidYMid meet" version="1.2"><defs/><g id="dde0a4d992"><g style="fill:#ffffff;fill-opacity:1;"><g transform="translate(13.104541, 23.05503)"><path style="stroke:none" d="M 3.175781 -5.480469 L 2.101562 -2.050781 C 2.023438 -1.871094 2 -1.664062 2 -1.484375 C 2 -0.898438 2.382812 -0.5625 3.484375 -0.332031 L 3.484375 0 L -0.921875 0 L -0.921875 -0.332031 C 0.078125 -0.613281 0.589844 -1.050781 0.972656 -2.050781 L 5.941406 -17.238281 L 9.222656 -17.238281 L 14.089844 -2.050781 C 14.421875 -1.101562 14.882812 -0.539062 15.5 -0.332031 L 15.5 0 L 9.246094 0 L 9.246094 -0.332031 C 9.835938 -0.539062 10.066406 -0.792969 10.066406 -1.304688 C 10.066406 -1.511719 10.015625 -1.765625 9.914062 -2.050781 L 8.8125 -5.480469 Z M 3.585938 -6.507812 L 8.480469 -6.507812 L 6.019531 -14.0625 Z M 3.585938 -6.507812 "/></g></g><g style="fill:#ffffff;fill-opacity:1;"><g transform="translate(28.141654, 23.05503)"><path style="stroke:none" d="M 6.328125 -15.035156 L 6.328125 -2.050781 C 6.328125 -1.101562 6.558594 -0.691406 7.351562 -0.359375 L 7.351562 0 L 1.101562 0 L 1.101562 -0.359375 C 1.894531 -0.691406 2.125 -1.101562 2.125 -2.050781 L 2.125 -15.035156 C 2.125 -15.984375 1.894531 -16.394531 1.101562 -16.726562 L 1.101562 -17.085938 L 7.351562 -17.085938 L 7.351562 -16.726562 C 6.558594 -16.421875 6.328125 -15.984375 6.328125 -15.035156 Z M 6.328125 -15.035156 "/></g></g><g style="fill:#ffffff;fill-opacity:1;"><g transform="translate(36.620846, 23.05503)"><path style="stroke:none" d="M 1.945312 -2.050781 L 1.945312 -15.035156 C 1.945312 -15.984375 1.714844 -16.394531 0.921875 -16.726562 L 0.921875 -17.085938 L 3.332031 -17.085938 C 3.714844 -17.085938 4.433594 -17.113281 5.355469 -17.1875 C 6.300781 -17.265625 7.300781 -17.316406 8.019531 -17.316406 C 13.933594 -17.316406 17.699219 -13.78125 17.699219 -8.171875 C 17.699219 -5.507812 16.753906 -3.226562 15.113281 -1.820312 C 13.652344 -0.613281 11.628906 0 9.09375 0 L 0.921875 0 L 0.921875 -0.359375 C 1.714844 -0.691406 1.945312 -1.101562 1.945312 -2.050781 Z M 5.96875 -14.960938 L 5.96875 -2.074219 C 5.96875 -1.152344 6.6875 -0.691406 8.121094 -0.691406 C 9.683594 -0.691406 10.886719 -1.152344 11.734375 -2.101562 C 12.886719 -3.40625 13.5 -5.585938 13.5 -8.375 C 13.5 -11.578125 12.730469 -13.988281 11.21875 -15.34375 C 10.398438 -16.136719 9.042969 -16.625 7.8125 -16.625 C 6.582031 -16.625 5.96875 -16.0625 5.96875 -14.960938 Z M 5.96875 -14.960938 "/></g></g><g style="fill:#ffffff;fill-opacity:1;"><g transform="translate(54.219655, 23.05503)"><path style="stroke:none" d="M 3.175781 -5.480469 L 2.101562 -2.050781 C 2.023438 -1.871094 2 -1.664062 2 -1.484375 C 2 -0.898438 2.382812 -0.5625 3.484375 -0.332031 L 3.484375 0 L -0.921875 0 L -0.921875 -0.332031 C 0.078125 -0.613281 0.589844 -1.050781 0.972656 -2.050781 L 5.941406 -17.238281 L 9.222656 -17.238281 L 14.089844 -2.050781 C 14.421875 -1.101562 14.882812 -0.539062 15.5 -0.332031 L 15.5 0 L 9.246094 0 L 9.246094 -0.332031 C 9.835938 -0.539062 10.066406 -0.792969 10.066406 -1.304688 C 10.066406 -1.511719 10.015625 -1.765625 9.914062 -2.050781 L 8.8125 -5.480469 Z M 3.585938 -6.507812 L 8.480469 -6.507812 L 6.019531 -14.0625 Z M 3.585938 -6.507812 "/></g></g><g style="fill:#ffffff;fill-opacity:1;"><g transform="translate(69.256768, 23.05503)"><path style="stroke:none" d="M 15.933594 0 L 12.347656 0 L 3.304688 -13.679688 L 3.304688 -2.125 C 3.304688 -1.023438 3.636719 -0.589844 4.738281 -0.359375 L 4.738281 0 L 0.792969 0 L 0.792969 -0.359375 C 1.894531 -0.589844 2.230469 -1.023438 2.230469 -2.125 L 2.230469 -14.960938 C 2.230469 -16.0625 1.894531 -16.496094 0.792969 -16.726562 L 0.792969 -17.085938 L 5.996094 -17.085938 L 14.832031 -3.792969 L 14.832031 -14.960938 C 14.832031 -16.0625 14.5 -16.496094 13.398438 -16.726562 L 13.398438 -17.085938 L 17.367188 -17.085938 L 17.367188 -16.726562 C 16.265625 -16.496094 15.933594 -16.0625 15.933594 -14.960938 Z M 15.933594 0 "/></g></g></g></svg>